<svg width="24" height="24" viewBox="0 0 24 24" fill="none" xmlns="http://www.w3.org/2000/svg">
<g clip-path="url(#clip0_5375_233)">
<path d="M5.98066 5.44913H22.2693L19.9504 15.3045C19.6492 16.5841 18.5075 17.4885 17.1929 17.4885H11.3481C10.0627 17.4885 8.9385 16.6231 8.60959 15.3806L5.98066 5.44913ZM5.98066 5.44913L4.91836 1.19995H1.73145" stroke="#3A3845" stroke-width="1.5" stroke-linecap="round" stroke-linejoin="round"/>
<path d="M9.16885 22.7999C9.9511 22.7999 10.5853 22.1658 10.5853 21.3836C10.5853 20.6013 9.9511 19.9672 9.16885 19.9672C8.38659 19.9672 7.75244 20.6013 7.75244 21.3836C7.75244 22.1658 8.38659 22.7999 9.16885 22.7999Z" fill="#3A3845"/>
<path d="M19.0844 22.7999C19.8666 22.7999 20.5008 22.1658 20.5008 21.3836C20.5008 20.6013 19.8666 19.9672 19.0844 19.9672C18.3021 19.9672 17.668 20.6013 17.668 21.3836C17.668 22.1658 18.3021 22.7999 19.0844 22.7999Z" fill="#3A3845"/>
</g>
<defs>
<clipPath id="clip0_5375_233">
<rect width="24" height="24" fill="white"/>
</clipPath>
</defs>
</svg>
