<svg width="21" height="21" viewBox="0 0 21 21" fill="none" xmlns="http://www.w3.org/2000/svg">
<path d="M20.4999 8.49838C20.4899 8.74438 20.3659 9.02538 20.1239 9.24638C19.1569 10.1334 18.1889 11.0194 17.2199 11.9044C16.7679 12.3184 16.3159 12.7324 15.8619 13.1454C15.7969 13.2034 15.7809 13.2554 15.8009 13.3474C16.1489 14.9344 16.4939 16.5224 16.8359 18.1104C16.9059 18.4294 16.9739 18.7494 17.0489 19.0674C17.1579 19.5394 17.0189 20.0044 16.6669 20.2684C16.2799 20.5584 15.8689 20.5764 15.4589 20.3234C14.1559 19.5144 12.8539 18.7024 11.5539 17.8874C11.2499 17.6984 10.9429 17.5134 10.6449 17.3174C10.5449 17.2514 10.4719 17.2514 10.3699 17.3154C8.78892 18.3064 7.20392 19.2904 5.62492 20.2804C5.28992 20.4904 4.94691 20.5694 4.57591 20.4104C4.08591 20.2004 3.82995 19.6624 3.95195 19.1034C4.29595 17.5204 4.64192 15.9374 4.98692 14.3544C5.05992 14.0214 5.1249 13.6864 5.2039 13.3564C5.2269 13.2614 5.21095 13.2054 5.14195 13.1424C4.54695 12.6024 3.95493 12.0614 3.36393 11.5184C2.53493 10.7604 1.7039 10.0064 0.880901 9.24238C0.543901 8.93038 0.416913 8.53338 0.554913 8.07838C0.692913 7.62338 1.00094 7.34938 1.45994 7.30038C2.27394 7.21338 3.08995 7.14037 3.90495 7.06237C4.71095 6.98537 5.51692 6.90937 6.32292 6.83337C6.59192 6.80737 6.86092 6.77937 7.12992 6.75837C7.21592 6.75137 7.2619 6.71137 7.2949 6.62937C8.0249 4.83837 8.75693 3.04838 9.48893 1.25938C9.69193 0.764378 10.0529 0.488376 10.5119 0.500376C10.9719 0.513376 11.3029 0.747372 11.4849 1.18737C11.9809 2.38537 12.4709 3.58638 12.9619 4.78738C13.2119 5.39638 13.4629 6.00837 13.7089 6.62037C13.7469 6.71437 13.7999 6.75138 13.8949 6.75938C14.5429 6.81638 15.1899 6.87637 15.8379 6.93937C16.7809 7.02837 17.7239 7.11838 18.6659 7.20938C18.9659 7.23738 19.2659 7.26538 19.5639 7.30038C20.1079 7.36738 20.5039 7.84038 20.4999 8.49838Z" stroke="#C69B7B" stroke-linecap="round" stroke-linejoin="round"/>
</svg>
