<svg width="20" height="20" viewBox="0 0 20 20" fill="none" xmlns="http://www.w3.org/2000/svg">
<path d="M19.9999 7.99838C19.9899 8.24438 19.8659 8.52538 19.6239 8.74638C18.6569 9.63338 17.6889 10.5194 16.7199 11.4044C16.2679 11.8184 15.8159 12.2324 15.3619 12.6454C15.2969 12.7034 15.2809 12.7554 15.3009 12.8474C15.6489 14.4344 15.9939 16.0224 16.3359 17.6104C16.4059 17.9294 16.4739 18.2494 16.5489 18.5674C16.6579 19.0394 16.5189 19.5044 16.1669 19.7684C15.7799 20.0584 15.3689 20.0764 14.9589 19.8234C13.6559 19.0144 12.3539 18.2024 11.0539 17.3874C10.7499 17.1984 10.4429 17.0134 10.1449 16.8174C10.0449 16.7514 9.97192 16.7514 9.86992 16.8154C8.28891 17.8064 6.70392 18.7904 5.12492 19.7804C4.78992 19.9904 4.44691 20.0694 4.07591 19.9104C3.58591 19.7004 3.32995 19.1624 3.45195 18.6034C3.79595 17.0204 4.14192 15.4374 4.48692 13.8544C4.55992 13.5214 4.6249 13.1864 4.7039 12.8564C4.7269 12.7614 4.71095 12.7054 4.64195 12.6424C4.04695 12.1024 3.45493 11.5614 2.86393 11.0184C2.03493 10.2604 1.2039 9.50638 0.380901 8.74238C0.0439014 8.43038 -0.0830874 8.03338 0.0549126 7.57838C0.192913 7.12338 0.500942 6.84938 0.959942 6.80038C1.77394 6.71338 2.58995 6.64037 3.40495 6.56237C4.21095 6.48537 5.01692 6.40937 5.82292 6.33337C6.09192 6.30737 6.36092 6.27937 6.62992 6.25837C6.71592 6.25137 6.7619 6.21137 6.7949 6.12937C7.5249 4.33837 8.25693 2.54838 8.98893 0.759378C9.19193 0.264378 9.55294 -0.0116244 10.0119 0.000375623C10.4719 0.0133756 10.8029 0.247372 10.9849 0.687372C11.4809 1.88537 11.9709 3.08638 12.4619 4.28738C12.7119 4.89638 12.9629 5.50837 13.2089 6.12037C13.2469 6.21437 13.2999 6.25138 13.3949 6.25938C14.0429 6.31638 14.6899 6.37637 15.3379 6.43937C16.2809 6.52837 17.2239 6.61838 18.1659 6.70938C18.4659 6.73738 18.7659 6.76538 19.0639 6.80038C19.6079 6.86738 20.0039 7.34038 19.9999 7.99838Z" fill="#C69B7B"/>
</svg>
